<svg width="0" height="0" class="hidden">
  <symbol fill="none" xmlns="http://www.w3.org/2000/svg" viewBox="0 0 24 24" id="contacts">
    <path d="M15.0001 22.75H9.00014C7.68014 22.75 6.58015 22.62 5.65015 22.34C5.31015 22.24 5.09015 21.91 5.11015 21.56C5.36015 18.57 8.39015 16.22 12.0001 16.22C15.6101 16.22 18.6301 18.56 18.8901 21.56C18.9201 21.92 18.7001 22.24 18.3501 22.34C17.4201 22.62 16.3201 22.75 15.0001 22.75ZM6.72015 21.06C7.38015 21.19 8.13015 21.25 9.00014 21.25H15.0001C15.8701 21.25 16.6201 21.19 17.2801 21.06C16.7501 19.14 14.5601 17.72 12.0001 17.72C9.44015 17.72 7.25015 19.14 6.72015 21.06Z" fill="currentColor"></path>
    <path d="M15 2H9C4 2 2 4 2 9V15C2 18.78 3.14 20.85 5.86 21.62C6.08 19.02 8.75 16.97 12 16.97C15.25 16.97 17.92 19.02 18.14 21.62C20.86 20.85 22 18.78 22 15V9C22 4 20 2 15 2ZM12 14.17C10.02 14.17 8.42 12.56 8.42 10.58C8.42 8.60002 10.02 7 12 7C13.98 7 15.58 8.60002 15.58 10.58C15.58 12.56 13.98 14.17 12 14.17Z" stroke="currentColor" stroke-width="1.5" stroke-linecap="round" stroke-linejoin="round"></path>
    <path d="M11.9999 14.92C9.60992 14.92 7.66992 12.97 7.66992 10.58C7.66992 8.19002 9.60992 6.25 11.9999 6.25C14.3899 6.25 16.3299 8.19002 16.3299 10.58C16.3299 12.97 14.3899 14.92 11.9999 14.92ZM11.9999 7.75C10.4399 7.75 9.16992 9.02002 9.16992 10.58C9.16992 12.15 10.4399 13.42 11.9999 13.42C13.5599 13.42 14.8299 12.15 14.8299 10.58C14.8299 9.02002 13.5599 7.75 11.9999 7.75Z" fill="currentColor"></path>
  </symbol>
  <symbol fill="none" xmlns="http://www.w3.org/2000/svg" viewBox="0 0 24 24" id="dashboard">
    <path d="M18.32 12.75H15C12.51 12.75 11.25 11.34 11.25 8.55002V5.68002C11.25 4.66002 11.37 3.20002 12.43 2.40002C13.32 1.74002 14.6 1.69002 16.49 2.24002C18.97 2.96002 21.04 5.03002 21.76 7.51002C22.31 9.39002 22.26 10.68 21.6 11.56C20.8 12.63 19.34 12.75 18.32 12.75ZM14.28 3.36002C13.87 3.36002 13.55 3.44002 13.34 3.60002C12.95 3.89002 12.76 4.57002 12.76 5.68002V8.56002C12.76 10.8 13.62 11.26 15.01 11.26H18.33C19.43 11.26 20.11 11.07 20.41 10.68C20.76 10.22 20.73 9.30002 20.34 7.95002C19.76 5.98002 18.06 4.27002 16.09 3.70002C15.35 3.47002 14.75 3.36002 14.28 3.36002Z" fill="currentColor"></path>
    <path d="M11.0699 22.75C10.5399 22.75 9.99988 22.71 9.45988 22.62C5.36988 21.96 2.03988 18.64 1.37988 14.55C0.529883 9.29002 3.91988 4.33002 9.10988 3.27002C9.51988 3.19002 9.90988 3.45002 9.99988 3.85002C10.0799 4.26002 9.81988 4.65002 9.41988 4.74002C5.02988 5.64002 2.14988 9.84002 2.87988 14.31C3.43988 17.77 6.24988 20.58 9.70988 21.14C14.1999 21.86 18.3899 18.97 19.2799 14.56C19.3599 14.15 19.7599 13.89 20.1599 13.97C20.5699 14.05 20.8299 14.45 20.7499 14.85C19.7999 19.52 15.7199 22.75 11.0699 22.75Z" fill="currentColor"></path>
  </symbol>
  <symbol fill="none" xmlns="http://www.w3.org/2000/svg" viewBox="0 0 24 24" id="email">
    <path d="M17 21.25H7C3.35 21.25 1.25 19.15 1.25 15.5V8.5C1.25 4.85 3.35 2.75 7 2.75H17C20.65 2.75 22.75 4.85 22.75 8.5V15.5C22.75 19.15 20.65 21.25 17 21.25ZM7 4.25C4.14 4.25 2.75 5.64 2.75 8.5V15.5C2.75 18.36 4.14 19.75 7 19.75H17C19.86 19.75 21.25 18.36 21.25 15.5V8.5C21.25 5.64 19.86 4.25 17 4.25H7Z" fill="currentColor"></path>
    <path d="M11.9998 12.87C11.1598 12.87 10.3098 12.61 9.65978 12.08L6.52978 9.57997C6.20978 9.31997 6.14978 8.84997 6.40978 8.52997C6.66978 8.20997 7.13978 8.14997 7.45978 8.40997L10.5898 10.91C11.3498 11.52 12.6398 11.52 13.3998 10.91L16.5298 8.40997C16.8498 8.14997 17.3298 8.19997 17.5798 8.52997C17.8398 8.84997 17.7898 9.32997 17.4598 9.57997L14.3298 12.08C13.6898 12.61 12.8398 12.87 11.9998 12.87Z" fill="currentColor"></path>
  </symbol>
  <symbol fill="none" xmlns="http://www.w3.org/2000/svg" viewBox="0 0 24 24" id="integrations">
    <path d="M19.77 11.25H15.73C13.72 11.25 12.75 10.36 12.75 8.52V3.98C12.75 2.14 13.73 1.25 15.73 1.25H19.77C21.78 1.25 22.75 2.14 22.75 3.98V8.51C22.75 10.36 21.77 11.25 19.77 11.25ZM15.73 2.75C14.39 2.75 14.25 3.13 14.25 3.98V8.51C14.25 9.37 14.39 9.74 15.73 9.74H19.77C21.11 9.74 21.25 9.36 21.25 8.51V3.98C21.25 3.12 21.11 2.75 19.77 2.75H15.73Z" fill="currentColor"></path>
    <path d="M19.77 22.75H15.73C13.72 22.75 12.75 21.77 12.75 19.77V15.73C12.75 13.72 13.73 12.75 15.73 12.75H19.77C21.78 12.75 22.75 13.73 22.75 15.73V19.77C22.75 21.77 21.77 22.75 19.77 22.75ZM15.73 14.25C14.55 14.25 14.25 14.55 14.25 15.73V19.77C14.25 20.95 14.55 21.25 15.73 21.25H19.77C20.95 21.25 21.25 20.95 21.25 19.77V15.73C21.25 14.55 20.95 14.25 19.77 14.25H15.73Z" fill="currentColor"></path>
    <path d="M8.27 11.25H4.23C2.22 11.25 1.25 10.36 1.25 8.52V3.98C1.25 2.14 2.23 1.25 4.23 1.25H8.27C10.28 1.25 11.25 2.14 11.25 3.98V8.51C11.25 10.36 10.27 11.25 8.27 11.25ZM4.23 2.75C2.89 2.75 2.75 3.13 2.75 3.98V8.51C2.75 9.37 2.89 9.74 4.23 9.74H8.27C9.61 9.74 9.75 9.36 9.75 8.51V3.98C9.75 3.12 9.61 2.75 8.27 2.75H4.23Z" fill="currentColor"></path>
    <path d="M8.27 22.75H4.23C2.22 22.75 1.25 21.77 1.25 19.77V15.73C1.25 13.72 2.23 12.75 4.23 12.75H8.27C10.28 12.75 11.25 13.73 11.25 15.73V19.77C11.25 21.77 10.27 22.75 8.27 22.75ZM4.23 14.25C3.05 14.25 2.75 14.55 2.75 15.73V19.77C2.75 20.95 3.05 21.25 4.23 21.25H8.27C9.45 21.25 9.75 20.95 9.75 19.77V15.73C9.75 14.55 9.45 14.25 8.27 14.25H4.23Z" fill="currentColor"></path>
  </symbol>
  <symbol fill="none" xmlns="http://www.w3.org/2000/svg" viewBox="0 0 24 24" id="note1">
    <path d="M15.8101 20.18C15.5501 20.18 15.2801 20.17 14.9901 20.14C14.4701 20.1 13.8801 20 13.2701 19.85L11.5901 19.45C6.98007 18.36 5.47007 15.92 6.55007 11.32L7.53007 7.13001C7.75007 6.18002 8.01007 5.41002 8.33007 4.77002C10.0501 1.22002 13.3401 1.54001 15.6801 2.09001L17.3501 2.48001C19.6901 3.03001 21.1701 3.90001 22.0001 5.23002C22.8201 6.56002 22.9501 8.27001 22.4001 10.61L21.4201 14.79C20.5601 18.45 18.7701 20.18 15.8101 20.18ZM13.1201 3.25001C11.4501 3.25001 10.3901 3.94002 9.68007 5.42002C9.42007 5.96002 9.19007 6.63001 8.99007 7.47001L8.01007 11.66C7.12007 15.44 8.15007 17.09 11.9301 17.99L13.6101 18.39C14.1501 18.52 14.6601 18.6 15.1201 18.64C17.8401 18.91 19.1901 17.72 19.9501 14.45L20.9301 10.27C21.3801 8.34002 21.3201 6.99002 20.7201 6.02001C20.1201 5.05001 18.9401 4.39002 17.0001 3.94002L15.3301 3.55001C14.5001 3.35001 13.7601 3.25001 13.1201 3.25001Z" fill="currentColor"></path>
    <path d="M8.33005 22.25C5.76005 22.25 4.12005 20.71 3.07005 17.46L1.79005 13.5101C0.370052 9.11005 1.64005 6.63005 6.02005 5.21005L7.60005 4.70005C8.12005 4.54005 8.51005 4.43005 8.86005 4.37005C9.15005 4.31005 9.43005 4.42005 9.60005 4.65005C9.77005 4.88005 9.80005 5.18005 9.68005 5.44005C9.42005 5.97005 9.19005 6.64005 9.00005 7.48005L8.02005 11.6701C7.13005 15.4501 8.16005 17.1001 11.9401 18.0001L13.6201 18.4001C14.1601 18.5301 14.6701 18.6101 15.1301 18.6501C15.4501 18.68 15.7101 18.9 15.8001 19.21C15.8801 19.5201 15.7601 19.8401 15.5001 20.0201C14.8401 20.4701 14.0101 20.85 12.9601 21.1901L11.3801 21.71C10.2301 22.07 9.23005 22.25 8.33005 22.25ZM7.78005 6.22005L6.49005 6.64005C2.92005 7.79005 2.07005 9.47005 3.22005 13.0501L4.50005 17.0001C5.66005 20.5701 7.34005 21.4301 10.9101 20.2801L12.4901 19.7601C12.5501 19.7401 12.6001 19.7201 12.6601 19.7001L11.6001 19.4501C6.99005 18.3601 5.48005 15.92 6.56005 11.3201L7.54005 7.13005C7.61005 6.81005 7.69005 6.50005 7.78005 6.22005Z" fill="currentColor"></path>
    <path d="M17.4901 10.51C17.4301 10.51 17.3701 10.5 17.3001 10.49L12.4501 9.26002C12.0501 9.16002 11.8101 8.75002 11.9101 8.35002C12.0101 7.95002 12.4201 7.71002 12.8201 7.81002L17.6701 9.04002C18.0701 9.14002 18.3101 9.55002 18.2101 9.95002C18.1301 10.28 17.8201 10.51 17.4901 10.51Z" fill="currentColor"></path>
    <path d="M14.5599 13.89C14.4999 13.89 14.4399 13.88 14.3699 13.87L11.4599 13.13C11.0599 13.03 10.8199 12.62 10.9199 12.22C11.0199 11.82 11.4299 11.58 11.8299 11.68L14.7399 12.42C15.1399 12.52 15.3799 12.93 15.2799 13.33C15.1999 13.67 14.8999 13.89 14.5599 13.89Z" fill="currentColor"></path>
  </symbol>
  <symbol fill="none" xmlns="http://www.w3.org/2000/svg" viewBox="0 0 18 22" id="notification">
    <path d="M8.79331 19.35C6.46331 19.35 4.13331 18.98 1.92331 18.24C1.08331 17.95 0.443307 17.36 0.163307 16.59C-0.126693 15.82 -0.0266934 14.97 0.433307 14.21L1.58331 12.3C1.82331 11.9 2.04331 11.1 2.04331 10.63V7.74C2.04331 4.02 5.07331 0.99 8.79331 0.99C12.5133 0.99 15.5433 4.02 15.5433 7.74V10.63C15.5433 11.09 15.7633 11.9 16.0033 12.31L17.1433 14.21C17.5733 14.93 17.6533 15.8 17.3633 16.59C17.0733 17.38 16.4433 17.98 15.6533 18.24C13.4533 18.98 11.1233 19.35 8.79331 19.35ZM8.79331 2.49C5.90331 2.49 3.54331 4.84 3.54331 7.74V10.63C3.54331 11.36 3.24331 12.44 2.87331 13.07L1.72331 14.98C1.50331 15.35 1.44331 15.74 1.57331 16.07C1.69331 16.41 1.99331 16.67 2.40331 16.81C6.58331 18.21 11.0133 18.21 15.1933 16.81C15.5533 16.69 15.8333 16.42 15.9633 16.06C16.0933 15.7 16.0633 15.31 15.8633 14.98L14.7133 13.07C14.3333 12.42 14.0433 11.35 14.0433 10.62V7.74C14.0433 4.84 11.6933 2.49 8.79331 2.49Z" fill="currentColor"></path>
    <path d="M10.6533 2.76C10.5833 2.76 10.5133 2.75 10.4433 2.73C10.1533 2.65 9.87331 2.59 9.60331 2.55C8.75331 2.44 7.93331 2.5 7.16331 2.73C6.88331 2.82 6.58331 2.73 6.39331 2.52C6.20331 2.31 6.14331 2.01 6.25331 1.74C6.66331 0.69 7.66331 0 8.80331 0C9.94331 0 10.9433 0.68 11.3533 1.74C11.4533 2.01 11.4033 2.31 11.2133 2.52C11.0633 2.68 10.8533 2.76 10.6533 2.76Z" fill="currentColor"></path>
    <path d="M8.79331 21.63C7.80331 21.63 6.84331 21.23 6.14331 20.53C5.44331 19.83 5.04331 18.87 5.04331 17.88H6.54331C6.54331 18.47 6.78331 19.05 7.20331 19.47C7.62331 19.89 8.20331 20.13 8.79331 20.13C10.0333 20.13 11.0433 19.12 11.0433 17.88H12.5433C12.5433 19.95 10.8633 21.63 8.79331 21.63Z" fill="currentColor"></path>
  </symbol>
  <symbol fill="none" xmlns="http://www.w3.org/2000/svg" viewBox="0 0 24 24" id="search">
    <path d="M11.5 21.75C5.85 21.75 1.25 17.15 1.25 11.5C1.25 5.85 5.85 1.25 11.5 1.25C17.15 1.25 21.75 5.85 21.75 11.5C21.75 17.15 17.15 21.75 11.5 21.75ZM11.5 2.75C6.67 2.75 2.75 6.68 2.75 11.5C2.75 16.32 6.67 20.25 11.5 20.25C16.33 20.25 20.25 16.32 20.25 11.5C20.25 6.68 16.33 2.75 11.5 2.75Z" fill="currentColor"></path>
    <path d="M22 22.75C21.81 22.75 21.62 22.68 21.47 22.53L19.47 20.53C19.18 20.24 19.18 19.76 19.47 19.47C19.76 19.18 20.24 19.18 20.53 19.47L22.53 21.47C22.82 21.76 22.82 22.24 22.53 22.53C22.38 22.68 22.19 22.75 22 22.75Z" fill="currentColor"></path>
  </symbol>
  <symbol fill="none" xmlns="http://www.w3.org/2000/svg" viewBox="0 0 24 24" id="setting">
    <path d="M12 15.75C9.93 15.75 8.25 14.07 8.25 12C8.25 9.92998 9.93 8.24998 12 8.24998C14.07 8.24998 15.75 9.92998 15.75 12C15.75 14.07 14.07 15.75 12 15.75ZM12 9.74998C10.76 9.74998 9.75 10.76 9.75 12C9.75 13.24 10.76 14.25 12 14.25C13.24 14.25 14.25 13.24 14.25 12C14.25 10.76 13.24 9.74998 12 9.74998Z" fill="currentColor"></path>
    <path d="M15.21 22.19C15 22.19 14.79 22.16 14.58 22.11C13.96 21.94 13.44 21.55 13.11 21L12.99 20.8C12.4 19.78 11.59 19.78 11 20.8L10.89 20.99C10.56 21.55 10.04 21.95 9.42 22.11C8.79 22.28 8.14 22.19 7.59 21.86L5.87 20.87C5.26 20.52 4.82 19.95 4.63 19.26C4.45 18.57 4.54 17.86 4.89 17.25C5.18 16.74 5.26 16.28 5.09 15.99C4.92 15.7 4.49 15.53 3.9 15.53C2.44 15.53 1.25 14.34 1.25 12.88V11.12C1.25 9.65998 2.44 8.46998 3.9 8.46998C4.49 8.46998 4.92 8.29998 5.09 8.00998C5.26 7.71998 5.19 7.25998 4.89 6.74998C4.54 6.13998 4.45 5.41998 4.63 4.73998C4.81 4.04998 5.25 3.47998 5.87 3.12998L7.6 2.13998C8.73 1.46998 10.22 1.85998 10.9 3.00998L11.02 3.20998C11.61 4.22998 12.42 4.22998 13.01 3.20998L13.12 3.01998C13.8 1.85998 15.29 1.46998 16.43 2.14998L18.15 3.13998C18.76 3.48998 19.2 4.05998 19.39 4.74998C19.57 5.43998 19.48 6.14998 19.13 6.75998C18.84 7.26998 18.76 7.72998 18.93 8.01998C19.1 8.30998 19.53 8.47998 20.12 8.47998C21.58 8.47998 22.77 9.66998 22.77 11.13V12.89C22.77 14.35 21.58 15.54 20.12 15.54C19.53 15.54 19.1 15.71 18.93 16C18.76 16.29 18.83 16.75 19.13 17.26C19.48 17.87 19.58 18.59 19.39 19.27C19.21 19.96 18.77 20.53 18.15 20.88L16.42 21.87C16.04 22.08 15.63 22.19 15.21 22.19ZM12 18.49C12.89 18.49 13.72 19.05 14.29 20.04L14.4 20.23C14.52 20.44 14.72 20.59 14.96 20.65C15.2 20.71 15.44 20.68 15.64 20.56L17.37 19.56C17.63 19.41 17.83 19.16 17.91 18.86C17.99 18.56 17.95 18.25 17.8 17.99C17.23 17.01 17.16 16 17.6 15.23C18.04 14.46 18.95 14.02 20.09 14.02C20.73 14.02 21.24 13.51 21.24 12.87V11.11C21.24 10.48 20.73 9.95998 20.09 9.95998C18.95 9.95998 18.04 9.51998 17.6 8.74998C17.16 7.97998 17.23 6.96998 17.8 5.98998C17.95 5.72998 17.99 5.41998 17.91 5.11998C17.83 4.81998 17.64 4.57998 17.38 4.41998L15.65 3.42998C15.22 3.16998 14.65 3.31998 14.39 3.75998L14.28 3.94998C13.71 4.93998 12.88 5.49998 11.99 5.49998C11.1 5.49998 10.27 4.93998 9.7 3.94998L9.59 3.74998C9.34 3.32998 8.78 3.17998 8.35 3.42998L6.62 4.42998C6.36 4.57998 6.16 4.82998 6.08 5.12998C6 5.42998 6.04 5.73998 6.19 5.99998C6.76 6.97998 6.83 7.98998 6.39 8.75998C5.95 9.52998 5.04 9.96998 3.9 9.96998C3.26 9.96998 2.75 10.48 2.75 11.12V12.88C2.75 13.51 3.26 14.03 3.9 14.03C5.04 14.03 5.95 14.47 6.39 15.24C6.83 16.01 6.76 17.02 6.19 18C6.04 18.26 6 18.57 6.08 18.87C6.16 19.17 6.35 19.41 6.61 19.57L8.34 20.56C8.55 20.69 8.8 20.72 9.03 20.66C9.27 20.6 9.47 20.44 9.6 20.23L9.71 20.04C10.28 19.06 11.11 18.49 12 18.49Z" fill="currentColor"></path>
  </symbol>
  <symbol fill="none" xmlns="http://www.w3.org/2000/svg" viewBox="0 0 24 24" id="sort">
    <path d="M21 7.75H3C2.59 7.75 2.25 7.41 2.25 7C2.25 6.59 2.59 6.25 3 6.25H21C21.41 6.25 21.75 6.59 21.75 7C21.75 7.41 21.41 7.75 21 7.75Z" fill="currentColor"></path>
    <path d="M18 12.75H6C5.59 12.75 5.25 12.41 5.25 12C5.25 11.59 5.59 11.25 6 11.25H18C18.41 11.25 18.75 11.59 18.75 12C18.75 12.41 18.41 12.75 18 12.75Z" fill="currentColor"></path>
    <path d="M14 17.75H10C9.59 17.75 9.25 17.41 9.25 17C9.25 16.59 9.59 16.25 10 16.25H14C14.41 16.25 14.75 16.59 14.75 17C14.75 17.41 14.41 17.75 14 17.75Z" fill="currentColor"></path>
  </symbol>
  <symbol fill="none" xmlns="http://www.w3.org/2000/svg" viewBox="0 0 24 24" id="Swap">
    <g id="Iconly/Regular/Light/Swap">
      <g id="Swap">
        <path id="Stroke 1" d="M16.8396 20.1642V6.54645" stroke="currentColor" stroke-width="1.5" stroke-linecap="round" stroke-linejoin="round"></path>
        <path id="Stroke 3" d="M20.9173 16.0681L16.8395 20.1648L12.7617 16.0681" stroke="currentColor" stroke-width="1.5" stroke-linecap="round" stroke-linejoin="round"></path>
        <path id="Stroke 5" d="M6.91115 3.83289V17.4507" stroke="currentColor" stroke-width="1.5" stroke-linecap="round" stroke-linejoin="round"></path>
        <path id="Stroke 7" d="M2.8335 7.929L6.91127 3.83234L10.9891 7.929" stroke="currentColor" stroke-width="1.5" stroke-linecap="round" stroke-linejoin="round"></path>
      </g>
    </g>
  </symbol>
  <symbol fill="none" xmlns="http://www.w3.org/2000/svg" viewBox="0 0 24 24" id="task">
    <path d="M16 22.75H8C4.98 22.75 3.25 21.02 3.25 18V8.25C3.25 5.1 4.85 3.5 8 3.5C8.41 3.5 8.75 3.84 8.75 4.25C8.75 4.65 8.91 5.03 9.19 5.31C9.47 5.59 9.85 5.75 10.25 5.75H13.75C14.58 5.75 15.25 5.08 15.25 4.25C15.25 3.84 15.59 3.5 16 3.5C19.15 3.5 20.75 5.1 20.75 8.25V18C20.75 21.02 19.02 22.75 16 22.75ZM7.34998 5.02C5.76998 5.15 4.75 5.86 4.75 8.25V18C4.75 20.22 5.78 21.25 8 21.25H16C18.22 21.25 19.25 20.22 19.25 18V8.25C19.25 5.86 18.23 5.16 16.65 5.02C16.31 6.3 15.14 7.25 13.75 7.25H10.25C9.45 7.25 8.70001 6.94 8.13 6.37C7.75 5.99 7.48998 5.53 7.34998 5.02Z" fill="currentColor"></path>
    <path d="M13.75 7.25H10.25C9.45 7.25 8.7 6.94 8.13 6.37C7.56 5.79999 7.25 5.05 7.25 4.25C7.25 2.6 8.6 1.25 10.25 1.25H13.75C14.55 1.25 15.3 1.56 15.87 2.13C16.44 2.7 16.75 3.45 16.75 4.25C16.75 5.9 15.4 7.25 13.75 7.25ZM10.25 2.75C9.42 2.75 8.75 3.42 8.75 4.25C8.75 4.65 8.91 5.03 9.19 5.31C9.47 5.59 9.85 5.75 10.25 5.75H13.75C14.58 5.75 15.25 5.08 15.25 4.25C15.25 3.85 15.09 3.47 14.81 3.19C14.53 2.91 14.15 2.75 13.75 2.75H10.25Z" fill="currentColor"></path>
    <path d="M12 13.75H8C7.59 13.75 7.25 13.41 7.25 13C7.25 12.59 7.59 12.25 8 12.25H12C12.41 12.25 12.75 12.59 12.75 13C12.75 13.41 12.41 13.75 12 13.75Z" fill="currentColor"></path>
    <path d="M16 17.75H8C7.59 17.75 7.25 17.41 7.25 17C7.25 16.59 7.59 16.25 8 16.25H16C16.41 16.25 16.75 16.59 16.75 17C16.75 17.41 16.41 17.75 16 17.75Z" fill="currentColor"></path>
  </symbol>
  <symbol fill="none" xmlns="http://www.w3.org/2000/svg" viewBox="0 0 24 24" id="text-bold">
    <path d="M12 12.75H4.88C4.47 12.75 4.13 12.41 4.13 12V4.5C4.13 2.98 5.36 1.75 6.88 1.75H12C15.03 1.75 17.5 4.22 17.5 7.25C17.5 10.28 15.03 12.75 12 12.75ZM5.62 11.25H12C14.21 11.25 16 9.46 16 7.25C16 5.04 14.21 3.25 12 3.25H6.88C6.19 3.25 5.63 3.81 5.63 4.5V11.25H5.62Z" fill="currentColor"></path>
    <path d="M14.38 22.25H6.88C5.36 22.25 4.13 21.02 4.13 19.5V12C4.13 11.59 4.47 11.25 4.88 11.25H14.38C17.41 11.25 19.88 13.72 19.88 16.75C19.88 19.78 17.41 22.25 14.38 22.25ZM5.62 12.75V19.5C5.62 20.19 6.18 20.75 6.87 20.75H14.37C16.58 20.75 18.37 18.96 18.37 16.75C18.37 14.54 16.58 12.75 14.37 12.75H5.62Z" fill="currentColor"></path>
  </symbol>
  <symbol fill="none" xmlns="http://www.w3.org/2000/svg" viewBox="0 0 24 24" id="text-underline">
    <path d="M19 21.75H5C4.59 21.75 4.25 21.41 4.25 21C4.25 20.59 4.59 20.25 5 20.25H19C19.41 20.25 19.75 20.59 19.75 21C19.75 21.41 19.41 21.75 19 21.75Z" fill="currentColor"></path>
    <path d="M12 17.75C7.73 17.75 4.25 14.27 4.25 10V3C4.25 2.59 4.59 2.25 5 2.25C5.41 2.25 5.75 2.59 5.75 3V10C5.75 13.45 8.55 16.25 12 16.25C15.45 16.25 18.25 13.45 18.25 10V3C18.25 2.59 18.59 2.25 19 2.25C19.41 2.25 19.75 2.59 19.75 3V10C19.75 14.27 16.27 17.75 12 17.75Z" fill="currentColor"></path>
  </symbol>
  <symbol fill="none" xmlns="http://www.w3.org/2000/svg" viewBox="0 0 24 24" id="analytics">
    <path d="M22 22.75H5C2.93 22.75 1.25 21.07 1.25 19V2C1.25 1.59 1.59 1.25 2 1.25C2.41 1.25 2.75 1.59 2.75 2V19C2.75 20.24 3.76 21.25 5 21.25H22C22.41 21.25 22.75 21.59 22.75 22C22.75 22.41 22.41 22.75 22 22.75Z" fill="currentColor"></path>
    <path d="M4.99982 17.75C4.82982 17.75 4.64982 17.69 4.50982 17.57C4.19982 17.3 4.15982 16.83 4.42982 16.51L9.01982 11.15C9.51982 10.57 10.2398 10.22 10.9998 10.19C11.7598 10.17 12.5098 10.45 13.0498 10.99L13.9998 11.94C14.2498 12.19 14.5798 12.31 14.9298 12.31C15.2798 12.3 15.5998 12.14 15.8298 11.87L20.4198 6.51002C20.6898 6.20002 21.1598 6.16 21.4798 6.43C21.7898 6.7 21.8298 7.17 21.5598 7.49L16.9698 12.85C16.4698 13.43 15.7498 13.78 14.9898 13.81C14.2298 13.83 13.4798 13.55 12.9398 13.01L11.9998 12.06C11.7498 11.81 11.4198 11.68 11.0698 11.69C10.7198 11.7 10.3998 11.86 10.1698 12.13L5.57982 17.49C5.41982 17.66 5.20982 17.75 4.99982 17.75Z" fill="currentColor"></path>
  </symbol>
  <symbol fill="none" xmlns="http://www.w3.org/2000/svg" viewBox="0 0 24 24" id="arrow-down">
    <path d="M12 16.8C11.3 16.8 10.6 16.53 10.07 16L3.55002 9.48001C3.26002 9.19001 3.26002 8.71001 3.55002 8.42001C3.84002 8.13001 4.32002 8.13001 4.61002 8.42001L11.13 14.94C11.61 15.42 12.39 15.42 12.87 14.94L19.39 8.42001C19.68 8.13001 20.16 8.13001 20.45 8.42001C20.74 8.71001 20.74 9.19001 20.45 9.48001L13.93 16C13.4 16.53 12.7 16.8 12 16.8Z" fill="currentColor"></path>
  </symbol>
  <symbol fill="none" xmlns="http://www.w3.org/2000/svg" viewBox="0 0 24 24" id="arrow-left">
    <path d="M15 20.67C14.81 20.67 14.62 20.6 14.47 20.45L7.95003 13.93C6.89003 12.87 6.89003 11.13 7.95003 10.07L14.47 3.55002C14.76 3.26002 15.24 3.26002 15.53 3.55002C15.82 3.84002 15.82 4.32002 15.53 4.61002L9.01003 11.13C8.53003 11.61 8.53003 12.39 9.01003 12.87L15.53 19.39C15.82 19.68 15.82 20.16 15.53 20.45C15.38 20.59 15.19 20.67 15 20.67Z" fill="currentColor"></path>
  </symbol>
  <symbol fill="none" xmlns="http://www.w3.org/2000/svg" viewBox="0 0 24 24" id="arrow-right">
    <path d="M8.90998 20.67C8.71998 20.67 8.52998 20.6 8.37998 20.45C8.08998 20.16 8.08998 19.68 8.37998 19.39L14.9 12.87C15.38 12.39 15.38 11.61 14.9 11.13L8.37998 4.61002C8.08998 4.32002 8.08998 3.84002 8.37998 3.55002C8.66998 3.26002 9.14998 3.26002 9.43998 3.55002L15.96 10.07C16.47 10.58 16.76 11.27 16.76 12C16.76 12.73 16.48 13.42 15.96 13.93L9.43998 20.45C9.28998 20.59 9.09998 20.67 8.90998 20.67Z" fill="currentColor"></path>
  </symbol>
  <symbol fill="none" xmlns="http://www.w3.org/2000/svg" viewBox="0 0 24 24" id="arrow-up">
    <path d="M19.92 15.8C19.73 15.8 19.54 15.73 19.39 15.58L12.87 9.05996C12.39 8.57996 11.61 8.57996 11.13 9.05996L4.61002 15.58C4.32002 15.87 3.84002 15.87 3.55002 15.58C3.26002 15.29 3.26002 14.81 3.55002 14.52L10.07 7.99996C11.13 6.93996 12.86 6.93996 13.93 7.99996L20.45 14.52C20.74 14.81 20.74 15.29 20.45 15.58C20.3 15.72 20.11 15.8 19.92 15.8Z" fill="currentColor"></path>
  </symbol>
  <symbol fill="none" xmlns="http://www.w3.org/2000/svg" viewBox="0 0 20 22" id="calendar">
    <path d="M5.75 4.5C5.34 4.5 5 4.16 5 3.75V0.75C5 0.34 5.34 0 5.75 0C6.16 0 6.5 0.34 6.5 0.75V3.75C6.5 4.16 6.16 4.5 5.75 4.5Z" fill="currentColor"></path>
    <path d="M13.75 4.5C13.34 4.5 13 4.16 13 3.75V0.75C13 0.34 13.34 0 13.75 0C14.16 0 14.5 0.34 14.5 0.75V3.75C14.5 4.16 14.16 4.5 13.75 4.5Z" fill="currentColor"></path>
    <path d="M6.25 13.25C6.12 13.25 5.99 13.22 5.87 13.17C5.74 13.12 5.64 13.05 5.54 12.96C5.36 12.77 5.25 12.52 5.25 12.25C5.25 12.12 5.28 11.99 5.33 11.87C5.38 11.75 5.45 11.64 5.54 11.54C5.64 11.45 5.74 11.38 5.87 11.33C6.23 11.18 6.68 11.26 6.96 11.54C7.14 11.73 7.25 11.99 7.25 12.25C7.25 12.31 7.24 12.38 7.23 12.45C7.22 12.51 7.2 12.57 7.17 12.63C7.15 12.69 7.12 12.75 7.08 12.81C7.05 12.86 7 12.91 6.96 12.96C6.77 13.14 6.51 13.25 6.25 13.25Z" fill="currentColor"></path>
    <path d="M9.75 13.25C9.62 13.25 9.49 13.22 9.37 13.17C9.24 13.12 9.14 13.05 9.04 12.96C8.86 12.77 8.75 12.52 8.75 12.25C8.75 12.12 8.78 11.99 8.83 11.87C8.88 11.75 8.95 11.64 9.04 11.54C9.14 11.45 9.24 11.38 9.37 11.33C9.73 11.17 10.18 11.26 10.46 11.54C10.64 11.73 10.75 11.99 10.75 12.25C10.75 12.31 10.74 12.38 10.73 12.45C10.72 12.51 10.7 12.57 10.67 12.63C10.65 12.69 10.62 12.75 10.58 12.81C10.55 12.86 10.5 12.91 10.46 12.96C10.27 13.14 10.01 13.25 9.75 13.25Z" fill="currentColor"></path>
    <path d="M13.25 13.25C13.12 13.25 12.99 13.22 12.87 13.17C12.74 13.12 12.64 13.05 12.54 12.96C12.5 12.91 12.46 12.86 12.42 12.81C12.38 12.75 12.35 12.69 12.33 12.63C12.3 12.57 12.28 12.51 12.27 12.45C12.26 12.38 12.25 12.31 12.25 12.25C12.25 11.99 12.36 11.73 12.54 11.54C12.64 11.45 12.74 11.38 12.87 11.33C13.24 11.17 13.68 11.26 13.96 11.54C14.14 11.73 14.25 11.99 14.25 12.25C14.25 12.31 14.24 12.38 14.23 12.45C14.22 12.51 14.2 12.57 14.17 12.63C14.15 12.69 14.12 12.75 14.08 12.81C14.05 12.86 14 12.91 13.96 12.96C13.77 13.14 13.51 13.25 13.25 13.25Z" fill="currentColor"></path>
    <path d="M6.25 16.75C6.12 16.75 5.99 16.72 5.87 16.67C5.75 16.62 5.64 16.55 5.54 16.46C5.36 16.27 5.25 16.01 5.25 15.75C5.25 15.62 5.28 15.49 5.33 15.37C5.38 15.24 5.45 15.13 5.54 15.04C5.91 14.67 6.59 14.67 6.96 15.04C7.14 15.23 7.25 15.49 7.25 15.75C7.25 16.01 7.14 16.27 6.96 16.46C6.77 16.64 6.51 16.75 6.25 16.75Z" fill="currentColor"></path>
    <path d="M9.75 16.75C9.49 16.75 9.23 16.64 9.04 16.46C8.86 16.27 8.75 16.01 8.75 15.75C8.75 15.62 8.78 15.49 8.83 15.37C8.88 15.24 8.95 15.13 9.04 15.04C9.41 14.67 10.09 14.67 10.46 15.04C10.55 15.13 10.62 15.24 10.67 15.37C10.72 15.49 10.75 15.62 10.75 15.75C10.75 16.01 10.64 16.27 10.46 16.46C10.27 16.64 10.01 16.75 9.75 16.75Z" fill="currentColor"></path>
    <path d="M13.25 16.75C12.99 16.75 12.73 16.64 12.54 16.46C12.45 16.37 12.38 16.26 12.33 16.13C12.28 16.01 12.25 15.88 12.25 15.75C12.25 15.62 12.28 15.49 12.33 15.37C12.38 15.24 12.45 15.13 12.54 15.04C12.77 14.81 13.12 14.7 13.44 14.77C13.51 14.78 13.57 14.8 13.63 14.83C13.69 14.85 13.75 14.88 13.81 14.92C13.86 14.95 13.91 15 13.96 15.04C14.14 15.23 14.25 15.49 14.25 15.75C14.25 16.01 14.14 16.27 13.96 16.46C13.77 16.64 13.51 16.75 13.25 16.75Z" fill="currentColor"></path>
    <path d="M18.25 8.58997H1.25C0.84 8.58997 0.5 8.24997 0.5 7.83997C0.5 7.42997 0.84 7.08997 1.25 7.08997H18.25C18.66 7.08997 19 7.42997 19 7.83997C19 8.24997 18.66 8.58997 18.25 8.58997Z" fill="currentColor"></path>
    <path d="M13.75 21.5H5.75C2.1 21.5 0 19.4 0 15.75V7.25C0 3.6 2.1 1.5 5.75 1.5H13.75C17.4 1.5 19.5 3.6 19.5 7.25V15.75C19.5 19.4 17.4 21.5 13.75 21.5ZM5.75 3C2.89 3 1.5 4.39 1.5 7.25V15.75C1.5 18.61 2.89 20 5.75 20H13.75C16.61 20 18 18.61 18 15.75V7.25C18 4.39 16.61 3 13.75 3H5.75Z" fill="currentColor"></path>
  </symbol>
  <symbol fill="none" xmlns="http://www.w3.org/2000/svg" viewBox="0 0 24 24" id="companies">
    <path d="M16 22.75H7.99998C3.37998 22.75 2.51998 20.6 2.29998 18.51L1.54998 10.5C1.43998 9.45 1.40998 7.9 2.44998 6.74C3.34998 5.74 4.83998 5.26 6.99998 5.26H17C19.17 5.26 20.66 5.75 21.55 6.74C22.59 7.9 22.56 9.45 22.45 10.51L21.7 18.5C21.48 20.6 20.62 22.75 16 22.75ZM6.99998 6.75C5.30998 6.75 4.14998 7.08 3.55998 7.74C3.06998 8.28 2.90998 9.11 3.03998 10.35L3.78998 18.36C3.95998 19.94 4.38998 21.25 7.99998 21.25H16C19.6 21.25 20.04 19.94 20.21 18.35L20.96 10.36C21.09 9.11 20.93 8.28 20.44 7.74C19.85 7.08 18.69 6.75 17 6.75H6.99998Z" fill="currentColor"></path>
    <path d="M16 6.75C15.59 6.75 15.25 6.41 15.25 6V5.2C15.25 3.42 15.25 2.75 12.8 2.75H11.2C8.74998 2.75 8.74998 3.42 8.74998 5.2V6C8.74998 6.41 8.40998 6.75 7.99998 6.75C7.58998 6.75 7.24998 6.41 7.24998 6V5.2C7.24998 3.44 7.24998 1.25 11.2 1.25H12.8C16.75 1.25 16.75 3.44 16.75 5.2V6C16.75 6.41 16.41 6.75 16 6.75Z" fill="currentColor"></path>
    <path d="M12 16.75C9.24998 16.75 9.24998 15.05 9.24998 14.03V13C9.24998 11.59 9.58998 11.25 11 11.25H13C14.41 11.25 14.75 11.59 14.75 13V14C14.75 15.04 14.75 16.75 12 16.75ZM10.75 12.75C10.75 12.83 10.75 12.92 10.75 13V14.03C10.75 15.06 10.75 15.25 12 15.25C13.25 15.25 13.25 15.09 13.25 14.02V13C13.25 12.92 13.25 12.83 13.25 12.75C13.17 12.75 13.08 12.75 13 12.75H11C10.92 12.75 10.83 12.75 10.75 12.75Z" fill="currentColor"></path>
    <path d="M14 14.77C13.63 14.77 13.3 14.49 13.26 14.11C13.21 13.7 13.5 13.32 13.91 13.27C16.55 12.94 19.08 11.94 21.21 10.39C21.54 10.14 22.01 10.22 22.26 10.56C22.5 10.89 22.43 11.36 22.09 11.61C19.75 13.31 16.99 14.4 14.09 14.77C14.06 14.77 14.03 14.77 14 14.77Z" fill="currentColor"></path>
    <path d="M9.99998 14.78C9.96998 14.78 9.93998 14.78 9.90998 14.78C7.16998 14.47 4.49998 13.47 2.18998 11.89C1.84998 11.66 1.75998 11.19 1.98998 10.85C2.21998 10.51 2.68998 10.42 3.02998 10.65C5.13998 12.09 7.56998 13 10.07 13.29C10.48 13.34 10.78 13.71 10.73 14.12C10.7 14.5 10.38 14.78 9.99998 14.78Z" fill="currentColor"></path>
  </symbol>
  <symbol fill="none" xmlns="http://www.w3.org/2000/svg" viewBox="0 0 44 41" id="Magnifyinglass">
    <rect x="15.5" y="13.5" width="13" height="13" stroke="currentColor" stroke-width="5"></rect>
    <path d="M9 2.5C12.5899 2.5 15.5 5.41015 15.5 9V15.5H9C5.41015 15.5 2.5 12.5899 2.5 9C2.5 5.41015 5.41015 2.5 9 2.5Z" stroke="currentColor" stroke-width="5"></path>
    <path d="M35 2.5C38.5899 2.5 41.5 5.41015 41.5 9C41.5 12.5899 38.5899 15.5 35 15.5H28.5V9C28.5 5.41015 31.4101 2.5 35 2.5Z" stroke="currentColor" stroke-width="5"></path>
    <path d="M35 25.5C38.5899 25.5 41.5 28.4101 41.5 32C41.5 35.5899 38.5899 38.5 35 38.5C31.4101 38.5 28.5 35.5899 28.5 32V25.5H35Z" stroke="currentColor" stroke-width="5"></path>
    <path d="M9 25.5H15.5V32C15.5 35.5899 12.5899 38.5 9 38.5C5.41015 38.5 2.5 35.5899 2.5 32C2.5 28.4101 5.41015 25.5 9 25.5Z" stroke="currentColor" stroke-width="5"></path>
  </symbol>
  <symbol fill="none" xmlns="http://www.w3.org/2000/svg" viewBox="0 0 24 24" id="QuestionCircle">
    <g id="Iconly/Regular/Outline/DangerCircle">
      <g id="DangerCircle">
        <path id="Fill 1" fill-rule="evenodd" clip-rule="evenodd" d="M12 3.5C7.313 3.5 3.5 7.313 3.5 12C3.5 16.687 7.313 20.5 12 20.5C16.687 20.5 20.5 16.687 20.5 12C20.5 7.313 16.687 3.5 12 3.5ZM12 22C6.486 22 2 17.514 2 12C2 6.486 6.486 2 12 2C17.514 2 22 6.486 22 12C22 17.514 17.514 22 12 22Z" fill="currentColor"></path>
      </g>
      <path id="?" d="M10.9517 14.1055V14.0487C10.958 13.4455 11.0212 12.9655 11.1412 12.6086C11.2612 12.2517 11.4317 11.9628 11.6528 11.7417C11.8738 11.5206 12.1391 11.3169 12.4486 11.1306C12.6349 11.0169 12.8023 10.8827 12.9507 10.728C13.0992 10.5701 13.216 10.3885 13.3013 10.1832C13.3897 9.97793 13.4339 9.75055 13.4339 9.50106C13.4339 9.19157 13.3613 8.92314 13.216 8.69576C13.0707 8.46838 12.8765 8.2931 12.6334 8.16994C12.3902 8.04678 12.1202 7.98519 11.8233 7.98519C11.5643 7.98519 11.3149 8.03888 11.0748 8.14625C10.8348 8.25363 10.6343 8.42259 10.4732 8.65312C10.3122 8.88366 10.219 9.18526 10.1937 9.55791H9C9.02526 9.02104 9.16422 8.56154 9.41686 8.17941C9.67267 7.79729 10.009 7.50517 10.4259 7.30305C10.8459 7.10094 11.3117 6.99988 11.8233 6.99988C12.3791 6.99988 12.8623 7.11041 13.2729 7.33147C13.6866 7.55254 14.0055 7.85571 14.2298 8.241C14.4571 8.62628 14.5708 9.06525 14.5708 9.55791C14.5708 9.9053 14.5171 10.2195 14.4098 10.5006C14.3055 10.7817 14.154 11.0327 13.955 11.2538C13.7592 11.4749 13.5223 11.6707 13.2444 11.8412C12.9665 12.0149 12.7439 12.198 12.5765 12.3907C12.4091 12.5802 12.2875 12.806 12.2117 13.0681C12.136 13.3302 12.0949 13.6571 12.0886 14.0487V14.1055H10.9517ZM11.558 16.9099C11.3243 16.9099 11.1238 16.8262 10.9564 16.6588C10.789 16.4914 10.7054 16.2909 10.7054 16.0572C10.7054 15.8235 10.789 15.623 10.9564 15.4556C11.1238 15.2882 11.3243 15.2045 11.558 15.2045C11.7917 15.2045 11.9923 15.2882 12.1596 15.4556C12.327 15.623 12.4107 15.8235 12.4107 16.0572C12.4107 16.2119 12.3712 16.3541 12.2923 16.4835C12.2165 16.613 12.1138 16.7172 11.9844 16.7962C11.858 16.872 11.7159 16.9099 11.558 16.9099Z" fill="currentColor"></path>
    </g>
  </symbol>
  <symbol fill="none" xmlns="http://www.w3.org/2000/svg" viewBox="0 0 6 6" id="add">
    <path d="M3 -2.18557e-08C3.27614 -3.39263e-08 3.5 0.223858 3.5 0.5L3.5 5.5C3.5 5.77614 3.27614 6 3 6C2.72386 6 2.5 5.77614 2.5 5.5L2.5 0.5C2.5 0.223858 2.72386 -9.78513e-09 3 -2.18557e-08Z" fill="currentColor"></path>
    <path d="M0 3C0 2.72386 0.223858 2.5 0.5 2.5L5.5 2.5C5.77614 2.5 6 2.72386 6 3C6 3.27614 5.77614 3.5 5.5 3.5L0.5 3.5C0.223858 3.5 0 3.27614 0 3Z" fill="currentColor"></path>
  </symbol>
  <symbol fill="none" xmlns="http://www.w3.org/2000/svg" viewBox="0 0 10 5" id="sort">
    <path d="M9.55 0C9.79853 0 10 0.201472 10 0.45C10 0.698528 9.79853 0.9 9.55 0.9H0.45C0.201472 0.9 0 0.698528 0 0.45C0 0.201472 0.201472 0 0.45 0H9.55Z" fill="currentColor"></path>
    <path d="M8.78077 1.8C9.02929 1.8 9.23076 2.00147 9.23076 2.25C9.23076 2.49853 9.02929 2.7 8.78076 2.7L1.21923 2.7C0.970698 2.7 0.769226 2.49853 0.769226 2.25C0.769226 2.00147 0.970698 1.8 1.21923 1.8L8.78077 1.8Z" fill="currentColor"></path>
    <path d="M6.47307 3.6C6.7216 3.6 6.92307 3.80147 6.92307 4.05C6.92307 4.29853 6.7216 4.5 6.47307 4.5L3.52692 4.5C3.27839 4.5 3.07692 4.29853 3.07692 4.05C3.07692 3.80147 3.27839 3.6 3.52692 3.6L6.47307 3.6Z" fill="currentColor"></path>
  </symbol>
  <symbol fill="none" xmlns="http://www.w3.org/2000/svg" viewBox="0 0 24 24" id="Folder">
    <g id="Iconly/Regular/Light/Folder">
      <g id="Folder">
        <path id="Stroke 1" fill-rule="evenodd" clip-rule="evenodd" d="M21.419 15.7321C21.419 19.3101 19.31 21.4191 15.732 21.4191H7.95C4.363 21.4191 2.25 19.3101 2.25 15.7321V7.93209C2.25 4.35909 3.564 2.25009 7.143 2.25009H9.143C9.861 2.25109 10.537 2.58809 10.967 3.16309L11.88 4.37709C12.312 4.95109 12.988 5.28909 13.706 5.29009H16.536C20.123 5.29009 21.447 7.11609 21.447 10.7671L21.419 15.7321Z" stroke="currentColor" stroke-width="1.5" stroke-linecap="round" stroke-linejoin="round"></path>
        <path id="Stroke 3" d="M7.4812 14.463H16.2162" stroke="currentColor" stroke-width="1.5" stroke-linecap="round" stroke-linejoin="round"></path>
      </g>
    </g>
  </symbol>
  <symbol fill="none" xmlns="http://www.w3.org/2000/svg" viewBox="0 0 24 24" id="Send">
    <g id="Iconly/Regular/Light/Send">
      <g id="Send">
        <path id="Send_2" d="M15.8325 8.17463L10.109 13.9592L3.59944 9.88767C2.66675 9.30414 2.86077 7.88744 3.91572 7.57893L19.3712 3.05277C20.3373 2.76963 21.2326 3.67283 20.9456 4.642L16.3731 20.0868C16.0598 21.1432 14.6512 21.332 14.0732 20.3953L10.106 13.9602" stroke="currentColor" stroke-width="1.5" stroke-linecap="round" stroke-linejoin="round"></path>
      </g>
    </g>
  </symbol>
  <symbol fill="none" xmlns="http://www.w3.org/2000/svg" viewBox="0 0 24 24" id="Star">
    <g id="Iconly/Regular/Light/Star">
      <g id="Star">
        <path id="Stroke 1" fill-rule="evenodd" clip-rule="evenodd" d="M13.1043 4.17701L14.9317 7.82776C15.1108 8.18616 15.4565 8.43467 15.8573 8.49218L19.9453 9.08062C20.9554 9.22644 21.3573 10.4505 20.6263 11.1519L17.6702 13.9924C17.3797 14.2718 17.2474 14.6733 17.3162 15.0676L18.0138 19.0778C18.1856 20.0698 17.1298 20.8267 16.227 20.3574L12.5732 18.4627C12.215 18.2768 11.786 18.2768 11.4268 18.4627L7.773 20.3574C6.87023 20.8267 5.81439 20.0698 5.98724 19.0778L6.68385 15.0676C6.75257 14.6733 6.62033 14.2718 6.32982 13.9924L3.37368 11.1519C2.64272 10.4505 3.04464 9.22644 4.05466 9.08062L8.14265 8.49218C8.54354 8.43467 8.89028 8.18616 9.06937 7.82776L10.8957 4.17701C11.3477 3.27433 12.6523 3.27433 13.1043 4.17701Z" stroke="currentColor" stroke-width="1.5" stroke-linecap="round" stroke-linejoin="round"></path>
      </g>
    </g>
  </symbol>
  <symbol fill="none" xmlns="http://www.w3.org/2000/svg" viewBox="0 0 24 24" id="Danger">
    <g id="Iconly/Regular/Light/Danger Circle">
      <g id="Danger Circle">
        <path id="Stroke 1" fill-rule="evenodd" clip-rule="evenodd" d="M12.0001 2.75009C17.1081 2.75009 21.2501 6.89109 21.2501 12.0001C21.2501 17.1081 17.1081 21.2501 12.0001 21.2501C6.89112 21.2501 2.75012 17.1081 2.75012 12.0001C2.75012 6.89109 6.89112 2.75009 12.0001 2.75009Z" stroke="currentColor" stroke-width="1.5" stroke-linecap="round" stroke-linejoin="round"></path>
        <path id="Stroke 3" d="M11.9952 8.20419V12.6232" stroke="currentColor" stroke-width="1.5" stroke-linecap="round" stroke-linejoin="round"></path>
        <path id="Stroke 5" d="M11.995 15.7961H12.005" stroke="currentColor" stroke-width="2" stroke-linecap="round" stroke-linejoin="round"></path>
      </g>
    </g>
  </symbol>
  <symbol fill="none" xmlns="http://www.w3.org/2000/svg" viewBox="0 0 24 24" id="Delete">
    <g id="Iconly/Regular/Light/Delete">
      <g id="Delete">
        <path id="Stroke 1" d="M19.325 9.4682C19.325 9.4682 18.782 16.2032 18.467 19.0402C18.317 20.3952 17.48 21.1892 16.109 21.2142C13.5 21.2612 10.888 21.2642 8.28003 21.2092C6.96103 21.1822 6.13803 20.3782 5.99103 19.0472C5.67403 16.1852 5.13403 9.4682 5.13403 9.4682" stroke="currentColor" stroke-width="1.5" stroke-linecap="round" stroke-linejoin="round"></path>
        <path id="Stroke 3" d="M20.7082 6.23969H3.75024" stroke="currentColor" stroke-width="1.5" stroke-linecap="round" stroke-linejoin="round"></path>
        <path id="Stroke 5" d="M17.4406 6.23967C16.6556 6.23967 15.9796 5.68467 15.8256 4.91567L15.5826 3.69967C15.4326 3.13867 14.9246 2.75067 14.3456 2.75067H10.1126C9.53358 2.75067 9.02558 3.13867 8.87558 3.69967L8.63258 4.91567C8.47858 5.68467 7.80258 6.23967 7.01758 6.23967" stroke="currentColor" stroke-width="1.5" stroke-linecap="round" stroke-linejoin="round"></path>
      </g>
    </g>
  </symbol>
  <symbol fill="none" xmlns="http://www.w3.org/2000/svg" viewBox="0 0 24 24" id="Ticket">
    <g id="Iconly/Regular/Light/Ticket">
      <g id="Ticket">
        <g id="Group">
          <path id="Stroke 1" d="M13.8497 4.25031V6.67031" stroke="currentColor" stroke-width="1.5" stroke-linecap="round" stroke-linejoin="round"></path>
          <path id="Stroke 3" d="M13.8497 17.7601V19.7841" stroke="currentColor" stroke-width="1.5" stroke-linecap="round" stroke-linejoin="round"></path>
          <path id="Stroke 6" d="M13.8497 14.3246V9.5036" stroke="currentColor" stroke-width="1.5" stroke-linecap="round" stroke-linejoin="round"></path>
        </g>
        <path id="Stroke 7" fill-rule="evenodd" clip-rule="evenodd" d="M18.7021 20C20.5242 20 22 18.5426 22 16.7431V14.1506C20.7943 14.1506 19.8233 13.1917 19.8233 12.001C19.8233 10.8104 20.7943 9.85039 22 9.85039L21.999 7.25686C21.999 5.45745 20.5221 4 18.7011 4H5.29892C3.47789 4 2.00104 5.45745 2.00104 7.25686L2 9.93485C3.20567 9.93485 4.17668 10.8104 4.17668 12.001C4.17668 13.1917 3.20567 14.1506 2 14.1506V16.7431C2 18.5426 3.4758 20 5.29787 20H18.7021Z" stroke="currentColor" stroke-width="1.5" stroke-linecap="round" stroke-linejoin="round"></path>
      </g>
    </g>
  </symbol>
  <symbol fill="none" xmlns="http://www.w3.org/2000/svg" viewBox="0 0 24 24" id="Filter">
    <g id="Iconly/Regular/Light/Filter 3">
      <g id="Filter">
        <path id="Stroke 1" fill-rule="evenodd" clip-rule="evenodd" d="M4.56517 3C3.70108 3 3 3.71286 3 4.5904V5.52644C3 6.17647 3.24719 6.80158 3.68936 7.27177L8.5351 12.4243L8.53723 12.4211C9.47271 13.3788 9.99905 14.6734 9.99905 16.0233V20.5952C9.99905 20.9007 10.3187 21.0957 10.584 20.9516L13.3436 19.4479C13.7602 19.2204 14.0201 18.7784 14.0201 18.2984V16.0114C14.0201 14.6691 14.539 13.3799 15.466 12.4243L20.3117 7.27177C20.7528 6.80158 21 6.17647 21 5.52644V4.5904C21 3.71286 20.3 3 19.4359 3H4.56517Z" stroke="currentColor" stroke-width="1.5" stroke-linecap="round" stroke-linejoin="round"></path>
      </g>
    </g>
  </symbol>
  <symbol fill="none" xmlns="http://www.w3.org/2000/svg" viewBox="0 0 24 24" id="Square">
    <path fill-rule="evenodd" clip-rule="evenodd" d="M16.3341 2.75012H7.66512C4.64412 2.75012 2.75012 4.88912 2.75012 7.91612V16.0841C2.75012 19.1111 4.63512 21.2501 7.66512 21.2501H16.3331C19.3641 21.2501 21.2501 19.1111 21.2501 16.0841V7.91612C21.2501 4.88912 19.3641 2.75012 16.3341 2.75012Z" stroke="currentColor" stroke-width="1.5" stroke-linecap="round" stroke-linejoin="round"></path>
  </symbol>
  <symbol fill="none" xmlns="http://www.w3.org/2000/svg" viewBox="0 0 24 23" id="refresh">
    <path d="M11.7347 2.40934C14.9869 2.43592 17.8325 4.13824 19.4608 6.6897C19.6612 7.00376 19.5392 7.41299 19.229 7.61938C18.8674 7.85997 18.3658 7.75288 18.1262 7.3906C16.7517 5.31144 14.4022 3.93119 11.7224 3.90929C7.44237 3.8743 3.94433 7.31561 3.90933 11.5957C3.87434 15.8757 7.31566 19.3738 11.5957 19.4088C12.7654 19.4183 13.8763 19.1677 14.8743 18.7117C15.2686 18.5315 15.7507 18.7097 15.9284 19.1052C16.0806 19.4442 15.9661 19.8519 15.6307 20.0119C14.4052 20.5964 13.0325 20.9206 11.5835 20.9087C6.47499 20.867 2.36762 16.6919 2.40939 11.5834C2.45115 6.47495 6.62623 2.36757 11.7347 2.40934Z" fill="currentColor"></path>
    <path d="M11.7345 2.40894C14.9867 2.43553 17.8325 4.13817 19.4608 6.68957C19.6612 7.00363 19.5387 7.41297 19.2285 7.61936L19.1596 7.66065C18.8057 7.84573 18.3506 7.73016 18.1261 7.39055C16.7516 5.31145 14.4022 3.93122 11.7224 3.90931L11.3238 3.91635C7.22726 4.09031 3.94307 7.44929 3.90917 11.5957C3.87528 15.7421 7.10417 19.1548 11.1974 19.3956L11.5956 19.409C12.7652 19.4185 13.876 19.1672 14.874 18.7111C15.2683 18.531 15.7512 18.7098 15.9288 19.1052C16.0809 19.444 15.9662 19.8516 15.6312 20.0117L15.1646 20.2185C14.0611 20.672 12.8517 20.9187 11.5838 20.9084L11.1074 20.8923C6.37996 20.6138 2.61856 16.7912 2.41736 12.0598L2.40881 11.5836C2.45057 6.47521 6.62614 2.36727 11.7345 2.40894Z" fill="currentColor"></path>
    <path d="M19.514 0.926403C19.8845 0.920021 20.1906 1.21575 20.197 1.58627L20.3003 7.6242C20.3067 7.99472 20.0116 8.30018 19.6411 8.30656L13.6032 8.41118C13.2326 8.41756 12.9266 8.12184 12.9202 7.75132C12.9138 7.3808 13.2095 7.07471 13.58 7.06832L18.9472 6.9765L18.8541 1.6094C18.8477 1.23888 19.1434 0.932785 19.514 0.926403Z" fill="currentColor"></path>
  </symbol>
  <symbol fill="none" xmlns="http://www.w3.org/2000/svg" viewBox="0 0 24 24" id="More">
    <circle cx="11.5" cy="6.5" r="1.5" fill="currentColor"></circle>
    <circle cx="11.5" cy="12.5" r="1.5" fill="currentColor"></circle>
    <circle cx="11.5" cy="18.5" r="1.5" fill="currentColor"></circle>
  </symbol>
  <symbol fill="none" xmlns="http://www.w3.org/2000/svg" viewBox="0 0 34 34" id="label">
    <g clip-path="url(#clip0_6_12253)">
      <path d="M25.297 17.4882C25.3923 18.1052 25.1899 18.7593 24.708 19.2248L16.7883 26.8588C15.997 27.6229 14.7314 27.6079 13.9673 26.8166L7.02067 19.6232C6.25654 18.832 6.2857 17.5666 7.07698 16.8024L14.9828 9.15399C15.4647 8.68857 16.1256 8.50916 16.7388 8.62595L24.1614 10.0214L25.297 17.4882Z" fill="currentColor"></path>
    </g>
    <defs>
      <clipPath id="clip0_6_12253">
        <rect width="24" height="24" fill="white" transform="matrix(0.71934 -0.694658 -0.694658 -0.71934 16.6718 33.936)"></rect>
      </clipPath>
    </defs>
  </symbol>
  <symbol fill="none" xmlns="http://www.w3.org/2000/svg" viewBox="0 0 24 24" id="TickSquare">
    <path fill-rule="evenodd" clip-rule="evenodd" d="M7.67012 1.99988H16.3401C19.7301 1.99988 22.0001 4.37988 22.0001 7.91988V16.0909C22.0001 19.6199 19.7301 21.9999 16.3401 21.9999H7.67012C4.28012 21.9999 2.00012 19.6199 2.00012 16.0909V7.91988C2.00012 4.37988 4.28012 1.99988 7.67012 1.99988ZM11.4301 14.9899L16.1801 10.2399C16.5201 9.89988 16.5201 9.34988 16.1801 8.99988C15.8401 8.65988 15.2801 8.65988 14.9401 8.99988L10.8101 13.1299L9.06012 11.3799C8.72012 11.0399 8.16012 11.0399 7.82012 11.3799C7.48012 11.7199 7.48012 12.2699 7.82012 12.6199L10.2001 14.9899C10.3701 15.1599 10.5901 15.2399 10.8101 15.2399C11.0401 15.2399 11.2601 15.1599 11.4301 14.9899Z" fill="currentColor"></path>
  </symbol>
</svg>