<svg width="18" height="22" viewBox="0 0 18 22" fill="none" xmlns="http://www.w3.org/2000/svg">
<path d="M8.79331 19.35C6.46331 19.35 4.13331 18.98 1.92331 18.24C1.08331 17.95 0.443307 17.36 0.163307 16.59C-0.126693 15.82 -0.0266934 14.97 0.433307 14.21L1.58331 12.3C1.82331 11.9 2.04331 11.1 2.04331 10.63V7.74C2.04331 4.02 5.07331 0.99 8.79331 0.99C12.5133 0.99 15.5433 4.02 15.5433 7.74V10.63C15.5433 11.09 15.7633 11.9 16.0033 12.31L17.1433 14.21C17.5733 14.93 17.6533 15.8 17.3633 16.59C17.0733 17.38 16.4433 17.98 15.6533 18.24C13.4533 18.98 11.1233 19.35 8.79331 19.35ZM8.79331 2.49C5.90331 2.49 3.54331 4.84 3.54331 7.74V10.63C3.54331 11.36 3.24331 12.44 2.87331 13.07L1.72331 14.98C1.50331 15.35 1.44331 15.74 1.57331 16.07C1.69331 16.41 1.99331 16.67 2.40331 16.81C6.58331 18.21 11.0133 18.21 15.1933 16.81C15.5533 16.69 15.8333 16.42 15.9633 16.06C16.0933 15.7 16.0633 15.31 15.8633 14.98L14.7133 13.07C14.3333 12.42 14.0433 11.35 14.0433 10.62V7.74C14.0433 4.84 11.6933 2.49 8.79331 2.49Z" fill="#292D32"/>
<path d="M10.6533 2.76C10.5833 2.76 10.5133 2.75 10.4433 2.73C10.1533 2.65 9.87331 2.59 9.60331 2.55C8.75331 2.44 7.93331 2.5 7.16331 2.73C6.88331 2.82 6.58331 2.73 6.39331 2.52C6.20331 2.31 6.14331 2.01 6.25331 1.74C6.66331 0.69 7.66331 0 8.80331 0C9.94331 0 10.9433 0.68 11.3533 1.74C11.4533 2.01 11.4033 2.31 11.2133 2.52C11.0633 2.68 10.8533 2.76 10.6533 2.76Z" fill="#292D32"/>
<path d="M8.79331 21.63C7.80331 21.63 6.84331 21.23 6.14331 20.53C5.44331 19.83 5.04331 18.87 5.04331 17.88H6.54331C6.54331 18.47 6.78331 19.05 7.20331 19.47C7.62331 19.89 8.20331 20.13 8.79331 20.13C10.0333 20.13 11.0433 19.12 11.0433 17.88H12.5433C12.5433 19.95 10.8633 21.63 8.79331 21.63Z" fill="#292D32"/>
</svg>
